<svg width="51" height="51" viewBox="0 0 51 51" fill="none" xmlns="http://www.w3.org/2000/svg">
<ellipse cx="25.1144" cy="24.9316" rx="13.9226" ry="14.3867" />
<path d="M28.7667 9.42411C26.464 9.0865 25.1049 9.09577 22.8067 9.46475L26.1489 2.9293L28.7667 9.42411Z"/>
<path d="M37.9107 16.2764C36.7432 14.5715 35.908 13.6937 34.2624 12.442L40.6867 9.34285L37.9107 16.2764Z" />
<path d="M40.482 28.239C41.0288 25.7866 40.9197 24.2567 40.3614 21.8076L47.389 25.0562L40.482 28.239Z" />
<path d="M33.2963 38.4188C35.5039 37.0419 36.4775 35.7942 37.9382 33.6434L40.723 41.1019L33.2963 38.4188Z" />
<path d="M10.0787 22.0944C9.33739 24.3384 9.22939 25.8001 9.63293 28.1277L3.5709 24.7117L10.0787 22.0944Z" />
<path d="M16.6981 11.5165C14.5066 12.9188 13.3944 14.0631 12.0562 16.2919L9.92118 9.71341L16.6981 11.5165Z" />
<path d="M23.5298 48.0534L21.1442 40.0293C23.4012 40.6424 24.8054 40.75 27.1072 40.4801L23.5298 48.0534Z" />
<path d="M9.14062 39.6287L12.0836 33.6588C13.1869 35.3221 14.0103 36.2046 15.5646 37.3689L9.14062 39.6287Z" />
</svg>
