<svg width="155" height="80" viewBox="0 0 155 80" fill="none" xmlns="http://www.w3.org/2000/svg">
<path d="M75.0996 73.6129L135.575 65.7589L110.442 2.14178L76.2777 15.8862H73.5288L38.9713 2.14178L15.0167 65.3662L75.0996 73.6129Z" fill="#444343"/>
<path d="M36 1.5L5 71.2565L73.5288 76.5H76.6704L145 71.2565L113 1.5" stroke="#444343" stroke-width="6"/>
<mask id="path-3-outside-1_41_431" maskUnits="userSpaceOnUse" x="4" y="25" width="142" height="27" fill="black">
<rect fill="white" x="4" y="25" width="142" height="27"/>
<path d="M18.9013 34.5291C18.8274 33.7843 18.5104 33.2057 17.9503 32.7933C17.3902 32.3809 16.63 32.1747 15.6697 32.1747C15.0173 32.1747 14.4664 32.267 14.017 32.4517C13.5677 32.6302 13.223 32.8795 12.983 33.1996C12.7491 33.5196 12.6321 33.8828 12.6321 34.2891C12.6198 34.6276 12.6906 34.9231 12.8445 35.1754C13.0045 35.4278 13.223 35.6463 13.5 35.831C13.777 36.0095 14.0971 36.1664 14.4602 36.3018C14.8234 36.4311 15.2112 36.5419 15.6236 36.6342L17.3224 37.0405C18.1473 37.2251 18.9044 37.4714 19.5938 37.7791C20.2831 38.0869 20.8802 38.4654 21.3849 38.9148C21.8897 39.3641 22.2805 39.8935 22.5575 40.5028C22.8407 41.1122 22.9853 41.8108 22.9915 42.5987C22.9853 43.7559 22.6899 44.7592 22.1051 45.6087C21.5265 46.4519 20.6894 47.1075 19.5938 47.5753C18.5043 48.0369 17.1901 48.2678 15.6513 48.2678C14.1248 48.2678 12.7952 48.0339 11.6626 47.5661C10.5362 47.0982 9.65601 46.4058 9.02202 45.4886C8.39418 44.5653 8.06487 43.4235 8.03409 42.0632H11.9027C11.9458 42.6972 12.1274 43.2266 12.4474 43.6513C12.7737 44.0698 13.2076 44.3868 13.7493 44.6023C14.2971 44.8116 14.9157 44.9162 15.6051 44.9162C16.2822 44.9162 16.87 44.8177 17.3686 44.6207C17.8733 44.4238 18.2642 44.1499 18.5412 43.799C18.8182 43.4482 18.9567 43.045 18.9567 42.5895C18.9567 42.1648 18.8305 41.8078 18.5781 41.5185C18.3319 41.2292 17.9688 40.983 17.4886 40.7798C17.0147 40.5767 16.433 40.392 15.7436 40.2259L13.6847 39.7088C12.0904 39.321 10.8317 38.7147 9.90838 37.8899C8.98509 37.0651 8.52652 35.9541 8.53267 34.5568C8.52652 33.4119 8.8312 32.4117 9.44673 31.5561C10.0684 30.7005 10.9209 30.0327 12.0043 29.5526C13.0876 29.0724 14.3187 28.8324 15.6974 28.8324C17.1009 28.8324 18.3258 29.0724 19.3722 29.5526C20.4247 30.0327 21.2434 30.7005 21.8281 31.5561C22.4129 32.4117 22.7145 33.4027 22.733 34.5291H18.9013ZM32.0144 48.277C30.5617 48.277 29.3122 47.9692 28.2658 47.3537C27.2256 46.732 26.4254 45.8703 25.8652 44.7685C25.3113 43.6667 25.0343 42.3987 25.0343 40.9645C25.0343 39.5118 25.3143 38.2377 25.8745 37.142C26.4408 36.0402 27.244 35.1816 28.2843 34.5661C29.3245 33.9444 30.5617 33.6335 31.9959 33.6335C33.2331 33.6335 34.3165 33.8582 35.2459 34.3075C36.1754 34.7569 36.9109 35.3878 37.4526 36.2003C37.9943 37.0128 38.2928 37.9669 38.3482 39.0625H34.6365C34.5319 38.3546 34.2549 37.7853 33.8056 37.3544C33.3624 36.9174 32.7807 36.6989 32.0605 36.6989C31.4512 36.6989 30.9187 36.8651 30.4632 37.1974C30.0139 37.5237 29.6631 38.0007 29.4107 38.6286C29.1583 39.2564 29.0321 40.0166 29.0321 40.9091C29.0321 41.8139 29.1552 42.5833 29.4015 43.2173C29.6538 43.8513 30.0078 44.3345 30.4632 44.6669C30.9187 44.9993 31.4512 45.1655 32.0605 45.1655C32.5099 45.1655 32.9131 45.0732 33.2701 44.8885C33.6332 44.7038 33.9318 44.4361 34.1657 44.0852C34.4057 43.7282 34.5627 43.3004 34.6365 42.8018H38.3482C38.2866 43.8852 37.9912 44.8393 37.4618 45.6641C36.9386 46.4827 36.2154 47.1229 35.2921 47.5845C34.3688 48.0462 33.2762 48.277 32.0144 48.277ZM44.7997 39.8011V48H40.8665V29.0909H44.6889V36.3203H44.8551C45.1752 35.4832 45.6922 34.8277 46.4062 34.3537C47.1203 33.8736 48.0159 33.6335 49.093 33.6335C50.0779 33.6335 50.9366 33.849 51.669 34.2798C52.4077 34.7045 52.9801 35.317 53.3864 36.1172C53.7988 36.9112 54.0019 37.8622 53.9957 38.9702V48H50.0625V39.6719C50.0687 38.7978 49.8471 38.1177 49.3977 37.6314C48.9545 37.1451 48.3329 36.902 47.5327 36.902C46.9972 36.902 46.5232 37.0159 46.1108 37.2436C45.7045 37.4714 45.3845 37.8037 45.1506 38.2408C44.9228 38.6716 44.8059 39.1918 44.7997 39.8011ZM63.4988 48.277C62.0646 48.277 60.8243 47.9723 59.7779 47.3629C58.7376 46.7474 57.9344 45.8918 57.3681 44.7962C56.8018 43.6944 56.5186 42.4171 56.5186 40.9645C56.5186 39.4995 56.8018 38.2192 57.3681 37.1236C57.9344 36.0218 58.7376 35.1662 59.7779 34.5568C60.8243 33.9413 62.0646 33.6335 63.4988 33.6335C64.9329 33.6335 66.1702 33.9413 67.2104 34.5568C68.2568 35.1662 69.0632 36.0218 69.6294 37.1236C70.1957 38.2192 70.4789 39.4995 70.4789 40.9645C70.4789 42.4171 70.1957 43.6944 69.6294 44.7962C69.0632 45.8918 68.2568 46.7474 67.2104 47.3629C66.1702 47.9723 64.9329 48.277 63.4988 48.277ZM63.5172 45.2301C64.1697 45.2301 64.7144 45.0455 65.1515 44.6761C65.5885 44.3007 65.9178 43.7898 66.1394 43.1435C66.3671 42.4972 66.481 41.7616 66.481 40.9368C66.481 40.112 66.3671 39.3764 66.1394 38.7301C65.9178 38.0838 65.5885 37.5729 65.1515 37.1974C64.7144 36.822 64.1697 36.6342 63.5172 36.6342C62.8586 36.6342 62.3046 36.822 61.8553 37.1974C61.4121 37.5729 61.0766 38.0838 60.8489 38.7301C60.6273 39.3764 60.5165 40.112 60.5165 40.9368C60.5165 41.7616 60.6273 42.4972 60.8489 43.1435C61.0766 43.7898 61.4121 44.3007 61.8553 44.6761C62.3046 45.0455 62.8586 45.2301 63.5172 45.2301ZM79.4441 48.277C78.0099 48.277 76.7696 47.9723 75.7232 47.3629C74.6829 46.7474 73.8797 45.8918 73.3134 44.7962C72.7471 43.6944 72.464 42.4171 72.464 40.9645C72.464 39.4995 72.7471 38.2192 73.3134 37.1236C73.8797 36.0218 74.6829 35.1662 75.7232 34.5568C76.7696 33.9413 78.0099 33.6335 79.4441 33.6335C80.8783 33.6335 82.1155 33.9413 83.1557 34.5568C84.2021 35.1662 85.0085 36.0218 85.5748 37.1236C86.141 38.2192 86.4242 39.4995 86.4242 40.9645C86.4242 42.4171 86.141 43.6944 85.5748 44.7962C85.0085 45.8918 84.2021 46.7474 83.1557 47.3629C82.1155 47.9723 80.8783 48.277 79.4441 48.277ZM79.4625 45.2301C80.115 45.2301 80.6597 45.0455 81.0968 44.6761C81.5338 44.3007 81.8631 43.7898 82.0847 43.1435C82.3124 42.4972 82.4263 41.7616 82.4263 40.9368C82.4263 40.112 82.3124 39.3764 82.0847 38.7301C81.8631 38.0838 81.5338 37.5729 81.0968 37.1974C80.6597 36.822 80.115 36.6342 79.4625 36.6342C78.8039 36.6342 78.2499 36.822 77.8006 37.1974C77.3574 37.5729 77.022 38.0838 76.7942 38.7301C76.5726 39.3764 76.4618 40.112 76.4618 40.9368C76.4618 41.7616 76.5726 42.4972 76.7942 43.1435C77.022 43.7898 77.3574 44.3007 77.8006 44.6761C78.2499 45.0455 78.8039 45.2301 79.4625 45.2301ZM92.915 29.0909V48H88.9817V29.0909H92.915ZM99.9989 39.8011V48H96.0657V29.0909H99.8881V36.3203H100.054C100.374 35.4832 100.891 34.8277 101.605 34.3537C102.319 33.8736 103.215 33.6335 104.292 33.6335C105.277 33.6335 106.136 33.849 106.868 34.2798C107.607 34.7045 108.179 35.317 108.586 36.1172C108.998 36.9112 109.201 37.8622 109.195 38.9702V48H105.262V39.6719C105.268 38.7978 105.046 38.1177 104.597 37.6314C104.154 37.1451 103.532 36.902 102.732 36.902C102.196 36.902 101.722 37.0159 101.31 37.2436C100.904 37.4714 100.584 37.8037 100.35 38.2408C100.122 38.6716 100.005 39.1918 99.9989 39.8011ZM121.385 41.9616V33.8182H125.318V48H121.542V45.424H121.394C121.074 46.255 120.541 46.9228 119.797 47.4276C119.058 47.9323 118.156 48.1847 117.091 48.1847C116.144 48.1847 115.309 47.9692 114.589 47.5384C113.869 47.1075 113.306 46.495 112.9 45.701C112.5 44.907 112.296 43.956 112.29 42.848V33.8182H116.224V42.1463C116.23 42.9834 116.454 43.6451 116.898 44.1314C117.341 44.6177 117.935 44.8608 118.68 44.8608C119.153 44.8608 119.597 44.7531 120.009 44.5376C120.421 44.3161 120.754 43.9898 121.006 43.5589C121.265 43.1281 121.391 42.5956 121.385 41.9616ZM128.538 48V29.0909H132.471V36.2003H132.591C132.764 35.8187 133.013 35.4309 133.339 35.0369C133.672 34.6368 134.102 34.3045 134.632 34.0398C135.167 33.7689 135.832 33.6335 136.626 33.6335C137.66 33.6335 138.614 33.9044 139.488 34.446C140.362 34.9815 141.061 35.791 141.584 36.8743C142.107 37.9515 142.369 39.3026 142.369 40.9276C142.369 42.5095 142.114 43.8452 141.603 44.9347C141.098 46.018 140.409 46.8397 139.534 47.3999C138.667 47.9538 137.694 48.2308 136.617 48.2308C135.854 48.2308 135.204 48.1046 134.669 47.8523C134.139 47.5999 133.705 47.2829 133.367 46.9013C133.028 46.5135 132.77 46.1226 132.591 45.7287H132.416V48H128.538ZM132.388 40.9091C132.388 41.7524 132.505 42.4879 132.739 43.1158C132.973 43.7436 133.311 44.233 133.755 44.5838C134.198 44.9285 134.736 45.1009 135.37 45.1009C136.011 45.1009 136.552 44.9254 136.995 44.5746C137.439 44.2176 137.774 43.7251 138.002 43.0973C138.236 42.4633 138.353 41.7339 138.353 40.9091C138.353 40.0904 138.239 39.3703 138.011 38.7486C137.783 38.1269 137.448 37.6406 137.005 37.2898C136.561 36.9389 136.017 36.7635 135.37 36.7635C134.73 36.7635 134.189 36.9328 133.745 37.2713C133.308 37.6098 132.973 38.09 132.739 38.7116C132.505 39.3333 132.388 40.0658 132.388 40.9091Z"/>
</mask>
<path d="M18.9013 34.5291C18.8274 33.7843 18.5104 33.2057 17.9503 32.7933C17.3902 32.3809 16.63 32.1747 15.6697 32.1747C15.0173 32.1747 14.4664 32.267 14.017 32.4517C13.5677 32.6302 13.223 32.8795 12.983 33.1996C12.7491 33.5196 12.6321 33.8828 12.6321 34.2891C12.6198 34.6276 12.6906 34.9231 12.8445 35.1754C13.0045 35.4278 13.223 35.6463 13.5 35.831C13.777 36.0095 14.0971 36.1664 14.4602 36.3018C14.8234 36.4311 15.2112 36.5419 15.6236 36.6342L17.3224 37.0405C18.1473 37.2251 18.9044 37.4714 19.5938 37.7791C20.2831 38.0869 20.8802 38.4654 21.3849 38.9148C21.8897 39.3641 22.2805 39.8935 22.5575 40.5028C22.8407 41.1122 22.9853 41.8108 22.9915 42.5987C22.9853 43.7559 22.6899 44.7592 22.1051 45.6087C21.5265 46.4519 20.6894 47.1075 19.5938 47.5753C18.5043 48.0369 17.1901 48.2678 15.6513 48.2678C14.1248 48.2678 12.7952 48.0339 11.6626 47.5661C10.5362 47.0982 9.65601 46.4058 9.02202 45.4886C8.39418 44.5653 8.06487 43.4235 8.03409 42.0632H11.9027C11.9458 42.6972 12.1274 43.2266 12.4474 43.6513C12.7737 44.0698 13.2076 44.3868 13.7493 44.6023C14.2971 44.8116 14.9157 44.9162 15.6051 44.9162C16.2822 44.9162 16.87 44.8177 17.3686 44.6207C17.8733 44.4238 18.2642 44.1499 18.5412 43.799C18.8182 43.4482 18.9567 43.045 18.9567 42.5895C18.9567 42.1648 18.8305 41.8078 18.5781 41.5185C18.3319 41.2292 17.9688 40.983 17.4886 40.7798C17.0147 40.5767 16.433 40.392 15.7436 40.2259L13.6847 39.7088C12.0904 39.321 10.8317 38.7147 9.90838 37.8899C8.98509 37.0651 8.52652 35.9541 8.53267 34.5568C8.52652 33.4119 8.8312 32.4117 9.44673 31.5561C10.0684 30.7005 10.9209 30.0327 12.0043 29.5526C13.0876 29.0724 14.3187 28.8324 15.6974 28.8324C17.1009 28.8324 18.3258 29.0724 19.3722 29.5526C20.4247 30.0327 21.2434 30.7005 21.8281 31.5561C22.4129 32.4117 22.7145 33.4027 22.733 34.5291H18.9013ZM32.0144 48.277C30.5617 48.277 29.3122 47.9692 28.2658 47.3537C27.2256 46.732 26.4254 45.8703 25.8652 44.7685C25.3113 43.6667 25.0343 42.3987 25.0343 40.9645C25.0343 39.5118 25.3143 38.2377 25.8745 37.142C26.4408 36.0402 27.244 35.1816 28.2843 34.5661C29.3245 33.9444 30.5617 33.6335 31.9959 33.6335C33.2331 33.6335 34.3165 33.8582 35.2459 34.3075C36.1754 34.7569 36.9109 35.3878 37.4526 36.2003C37.9943 37.0128 38.2928 37.9669 38.3482 39.0625H34.6365C34.5319 38.3546 34.2549 37.7853 33.8056 37.3544C33.3624 36.9174 32.7807 36.6989 32.0605 36.6989C31.4512 36.6989 30.9187 36.8651 30.4632 37.1974C30.0139 37.5237 29.6631 38.0007 29.4107 38.6286C29.1583 39.2564 29.0321 40.0166 29.0321 40.9091C29.0321 41.8139 29.1552 42.5833 29.4015 43.2173C29.6538 43.8513 30.0078 44.3345 30.4632 44.6669C30.9187 44.9993 31.4512 45.1655 32.0605 45.1655C32.5099 45.1655 32.9131 45.0732 33.2701 44.8885C33.6332 44.7038 33.9318 44.4361 34.1657 44.0852C34.4057 43.7282 34.5627 43.3004 34.6365 42.8018H38.3482C38.2866 43.8852 37.9912 44.8393 37.4618 45.6641C36.9386 46.4827 36.2154 47.1229 35.2921 47.5845C34.3688 48.0462 33.2762 48.277 32.0144 48.277ZM44.7997 39.8011V48H40.8665V29.0909H44.6889V36.3203H44.8551C45.1752 35.4832 45.6922 34.8277 46.4062 34.3537C47.1203 33.8736 48.0159 33.6335 49.093 33.6335C50.0779 33.6335 50.9366 33.849 51.669 34.2798C52.4077 34.7045 52.9801 35.317 53.3864 36.1172C53.7988 36.9112 54.0019 37.8622 53.9957 38.9702V48H50.0625V39.6719C50.0687 38.7978 49.8471 38.1177 49.3977 37.6314C48.9545 37.1451 48.3329 36.902 47.5327 36.902C46.9972 36.902 46.5232 37.0159 46.1108 37.2436C45.7045 37.4714 45.3845 37.8037 45.1506 38.2408C44.9228 38.6716 44.8059 39.1918 44.7997 39.8011ZM63.4988 48.277C62.0646 48.277 60.8243 47.9723 59.7779 47.3629C58.7376 46.7474 57.9344 45.8918 57.3681 44.7962C56.8018 43.6944 56.5186 42.4171 56.5186 40.9645C56.5186 39.4995 56.8018 38.2192 57.3681 37.1236C57.9344 36.0218 58.7376 35.1662 59.7779 34.5568C60.8243 33.9413 62.0646 33.6335 63.4988 33.6335C64.9329 33.6335 66.1702 33.9413 67.2104 34.5568C68.2568 35.1662 69.0632 36.0218 69.6294 37.1236C70.1957 38.2192 70.4789 39.4995 70.4789 40.9645C70.4789 42.4171 70.1957 43.6944 69.6294 44.7962C69.0632 45.8918 68.2568 46.7474 67.2104 47.3629C66.1702 47.9723 64.9329 48.277 63.4988 48.277ZM63.5172 45.2301C64.1697 45.2301 64.7144 45.0455 65.1515 44.6761C65.5885 44.3007 65.9178 43.7898 66.1394 43.1435C66.3671 42.4972 66.481 41.7616 66.481 40.9368C66.481 40.112 66.3671 39.3764 66.1394 38.7301C65.9178 38.0838 65.5885 37.5729 65.1515 37.1974C64.7144 36.822 64.1697 36.6342 63.5172 36.6342C62.8586 36.6342 62.3046 36.822 61.8553 37.1974C61.4121 37.5729 61.0766 38.0838 60.8489 38.7301C60.6273 39.3764 60.5165 40.112 60.5165 40.9368C60.5165 41.7616 60.6273 42.4972 60.8489 43.1435C61.0766 43.7898 61.4121 44.3007 61.8553 44.6761C62.3046 45.0455 62.8586 45.2301 63.5172 45.2301ZM79.4441 48.277C78.0099 48.277 76.7696 47.9723 75.7232 47.3629C74.6829 46.7474 73.8797 45.8918 73.3134 44.7962C72.7471 43.6944 72.464 42.4171 72.464 40.9645C72.464 39.4995 72.7471 38.2192 73.3134 37.1236C73.8797 36.0218 74.6829 35.1662 75.7232 34.5568C76.7696 33.9413 78.0099 33.6335 79.4441 33.6335C80.8783 33.6335 82.1155 33.9413 83.1557 34.5568C84.2021 35.1662 85.0085 36.0218 85.5748 37.1236C86.141 38.2192 86.4242 39.4995 86.4242 40.9645C86.4242 42.4171 86.141 43.6944 85.5748 44.7962C85.0085 45.8918 84.2021 46.7474 83.1557 47.3629C82.1155 47.9723 80.8783 48.277 79.4441 48.277ZM79.4625 45.2301C80.115 45.2301 80.6597 45.0455 81.0968 44.6761C81.5338 44.3007 81.8631 43.7898 82.0847 43.1435C82.3124 42.4972 82.4263 41.7616 82.4263 40.9368C82.4263 40.112 82.3124 39.3764 82.0847 38.7301C81.8631 38.0838 81.5338 37.5729 81.0968 37.1974C80.6597 36.822 80.115 36.6342 79.4625 36.6342C78.8039 36.6342 78.2499 36.822 77.8006 37.1974C77.3574 37.5729 77.022 38.0838 76.7942 38.7301C76.5726 39.3764 76.4618 40.112 76.4618 40.9368C76.4618 41.7616 76.5726 42.4972 76.7942 43.1435C77.022 43.7898 77.3574 44.3007 77.8006 44.6761C78.2499 45.0455 78.8039 45.2301 79.4625 45.2301ZM92.915 29.0909V48H88.9817V29.0909H92.915ZM99.9989 39.8011V48H96.0657V29.0909H99.8881V36.3203H100.054C100.374 35.4832 100.891 34.8277 101.605 34.3537C102.319 33.8736 103.215 33.6335 104.292 33.6335C105.277 33.6335 106.136 33.849 106.868 34.2798C107.607 34.7045 108.179 35.317 108.586 36.1172C108.998 36.9112 109.201 37.8622 109.195 38.9702V48H105.262V39.6719C105.268 38.7978 105.046 38.1177 104.597 37.6314C104.154 37.1451 103.532 36.902 102.732 36.902C102.196 36.902 101.722 37.0159 101.31 37.2436C100.904 37.4714 100.584 37.8037 100.35 38.2408C100.122 38.6716 100.005 39.1918 99.9989 39.8011ZM121.385 41.9616V33.8182H125.318V48H121.542V45.424H121.394C121.074 46.255 120.541 46.9228 119.797 47.4276C119.058 47.9323 118.156 48.1847 117.091 48.1847C116.144 48.1847 115.309 47.9692 114.589 47.5384C113.869 47.1075 113.306 46.495 112.9 45.701C112.5 44.907 112.296 43.956 112.29 42.848V33.8182H116.224V42.1463C116.23 42.9834 116.454 43.6451 116.898 44.1314C117.341 44.6177 117.935 44.8608 118.68 44.8608C119.153 44.8608 119.597 44.7531 120.009 44.5376C120.421 44.3161 120.754 43.9898 121.006 43.5589C121.265 43.1281 121.391 42.5956 121.385 41.9616ZM128.538 48V29.0909H132.471V36.2003H132.591C132.764 35.8187 133.013 35.4309 133.339 35.0369C133.672 34.6368 134.102 34.3045 134.632 34.0398C135.167 33.7689 135.832 33.6335 136.626 33.6335C137.66 33.6335 138.614 33.9044 139.488 34.446C140.362 34.9815 141.061 35.791 141.584 36.8743C142.107 37.9515 142.369 39.3026 142.369 40.9276C142.369 42.5095 142.114 43.8452 141.603 44.9347C141.098 46.018 140.409 46.8397 139.534 47.3999C138.667 47.9538 137.694 48.2308 136.617 48.2308C135.854 48.2308 135.204 48.1046 134.669 47.8523C134.139 47.5999 133.705 47.2829 133.367 46.9013C133.028 46.5135 132.77 46.1226 132.591 45.7287H132.416V48H128.538ZM132.388 40.9091C132.388 41.7524 132.505 42.4879 132.739 43.1158C132.973 43.7436 133.311 44.233 133.755 44.5838C134.198 44.9285 134.736 45.1009 135.37 45.1009C136.011 45.1009 136.552 44.9254 136.995 44.5746C137.439 44.2176 137.774 43.7251 138.002 43.0973C138.236 42.4633 138.353 41.7339 138.353 40.9091C138.353 40.0904 138.239 39.3703 138.011 38.7486C137.783 38.1269 137.448 37.6406 137.005 37.2898C136.561 36.9389 136.017 36.7635 135.37 36.7635C134.73 36.7635 134.189 36.9328 133.745 37.2713C133.308 37.6098 132.973 38.09 132.739 38.7116C132.505 39.3333 132.388 40.0658 132.388 40.9091Z" fill="#444343"/>
<path d="M18.9013 34.5291L15.9159 34.8252L16.1841 37.5291H18.9013V34.5291ZM14.017 32.4517L15.1246 35.2398L15.141 35.2332L15.1574 35.2265L14.017 32.4517ZM12.983 33.1996L10.583 31.3996L10.5718 31.4145L10.5608 31.4295L12.983 33.1996ZM12.6321 34.2891L15.6301 34.3981L15.6321 34.3436V34.2891H12.6321ZM12.8445 35.1754L10.2831 36.7372L10.2968 36.7598L10.3109 36.7821L12.8445 35.1754ZM13.5 35.831L11.8359 38.3271L11.8553 38.34L11.8749 38.3527L13.5 35.831ZM14.4602 36.3018L13.4121 39.1128L13.4331 39.1206L13.4543 39.1282L14.4602 36.3018ZM15.6236 36.6342L16.3213 33.7165L16.3002 33.7114L16.279 33.7067L15.6236 36.6342ZM17.3224 37.0405L16.6247 39.9582L16.6458 39.9633L16.667 39.968L17.3224 37.0405ZM19.5938 37.7791L18.3708 40.5185L18.3708 40.5185L19.5938 37.7791ZM21.3849 38.9148L23.3797 36.6741L23.3797 36.6741L21.3849 38.9148ZM22.5575 40.5028L19.8264 41.7443L19.8316 41.7556L19.8369 41.767L22.5575 40.5028ZM22.9915 42.5987L25.9914 42.6147L25.9915 42.595L25.9914 42.5753L22.9915 42.5987ZM22.1051 45.6087L19.634 43.9076L19.6314 43.9114L22.1051 45.6087ZM19.5938 47.5753L20.7642 50.3375L20.7718 50.3343L19.5938 47.5753ZM11.6626 47.5661L10.512 50.3366L10.5174 50.3388L11.6626 47.5661ZM9.02202 45.4886L6.54124 47.1756L6.54771 47.1851L6.55425 47.1945L9.02202 45.4886ZM8.03409 42.0632V39.0632H4.96545L5.03486 42.1311L8.03409 42.0632ZM11.9027 42.0632L14.8958 41.8598L14.7057 39.0632H11.9027V42.0632ZM12.4474 43.6513L10.0516 45.4568L10.0663 45.4763L10.0813 45.4955L12.4474 43.6513ZM13.7493 44.6023L12.6406 47.3899L12.6596 47.3974L12.6787 47.4047L13.7493 44.6023ZM17.3686 44.6207L16.278 41.826L16.2663 41.8306L17.3686 44.6207ZM18.5412 43.799L20.8958 45.6579L20.8958 45.6579L18.5412 43.799ZM18.5781 41.5185L16.2935 43.4628L16.3054 43.4768L16.3174 43.4906L18.5781 41.5185ZM17.4886 40.7798L16.3069 43.5373L16.3197 43.5427L17.4886 40.7798ZM15.7436 40.2259L15.0129 43.1355L15.0267 43.139L15.0405 43.1423L15.7436 40.2259ZM13.6847 39.7088L14.4153 36.7991L14.4045 36.7964L14.3937 36.7938L13.6847 39.7088ZM9.90838 37.8899L7.90974 40.1272L7.90974 40.1272L9.90838 37.8899ZM8.53267 34.5568L11.5326 34.57L11.5327 34.5554L11.5326 34.5407L8.53267 34.5568ZM9.44673 31.5561L7.01977 29.7926L7.0156 29.7984L7.01147 29.8041L9.44673 31.5561ZM19.3722 29.5526L18.1211 32.2793L18.1271 32.282L19.3722 29.5526ZM21.8281 31.5561L19.3513 33.2489L19.3513 33.2489L21.8281 31.5561ZM22.733 34.5291V37.5291H25.7825L25.7326 34.4799L22.733 34.5291ZM21.8866 34.233C21.7361 32.7149 21.0298 31.3352 19.729 30.3775L16.1716 35.2092C16.1196 35.1708 16.0398 35.0924 15.9771 34.978C15.9172 34.8687 15.9135 34.8007 15.9159 34.8252L21.8866 34.233ZM19.729 30.3775C18.4899 29.4652 17.0317 29.1747 15.6697 29.1747V35.1747C16.2283 35.1747 16.2904 35.2966 16.1716 35.2092L19.729 30.3775ZM15.6697 29.1747C14.7526 29.1747 13.7889 29.302 12.8767 29.6769L15.1574 35.2265C15.1439 35.2321 15.282 35.1747 15.6697 35.1747V29.1747ZM12.9095 29.6636C12.054 30.0035 11.2177 30.5532 10.583 31.3996L15.383 34.9996C15.3108 35.0957 15.2362 35.1625 15.1796 35.2034C15.1255 35.2425 15.0999 35.2496 15.1246 35.2398L12.9095 29.6636ZM10.5608 31.4295C9.94156 32.2769 9.6321 33.2633 9.6321 34.2891H15.6321C15.6321 34.3778 15.6186 34.4973 15.5754 34.6316C15.5319 34.7666 15.4697 34.8813 15.4051 34.9696L10.5608 31.4295ZM9.63408 34.18C9.60361 35.018 9.78006 35.9123 10.2831 36.7372L15.4058 33.6136C15.6011 33.9338 15.636 34.2372 15.6301 34.3981L9.63408 34.18ZM10.3109 36.7821C10.7198 37.4268 11.2501 37.9366 11.8359 38.3271L15.1641 33.3348C15.196 33.3561 15.2892 33.4288 15.378 33.5688L10.3109 36.7821ZM11.8749 38.3527C12.3617 38.6664 12.8811 38.9148 13.4121 39.1128L15.5084 33.4909C15.313 33.4181 15.1923 33.3526 15.1251 33.3093L11.8749 38.3527ZM13.4543 39.1282C13.9424 39.3019 14.4482 39.4453 14.9682 39.5618L16.279 33.7067C15.9742 33.6385 15.7043 33.5603 15.4662 33.4755L13.4543 39.1282ZM14.9259 39.552L16.6247 39.9582L18.0202 34.1227L16.3213 33.7165L14.9259 39.552ZM16.667 39.968C17.3196 40.1141 17.884 40.3012 18.3708 40.5185L20.8167 35.0397C19.9247 34.6415 18.9749 34.3362 17.9779 34.113L16.667 39.968ZM18.3708 40.5185C18.8114 40.7152 19.1408 40.9335 19.3902 41.1555L23.3797 36.6741C22.6196 35.9974 21.7549 35.4585 20.8167 35.0397L18.3708 40.5185ZM19.3902 41.1555C19.5855 41.3294 19.7242 41.5194 19.8264 41.7443L25.2886 39.2614C24.8369 38.2675 24.1938 37.3988 23.3797 36.6741L19.3902 41.1555ZM19.8369 41.767C19.9108 41.9261 19.9882 42.1898 19.9916 42.6222L25.9914 42.5753C25.9825 41.4319 25.7705 40.2983 25.2782 39.2387L19.8369 41.767ZM19.9915 42.5828C19.9882 43.2142 19.8365 43.6134 19.634 43.9076L24.5762 47.3098C25.5432 45.9051 25.9825 44.2976 25.9914 42.6147L19.9915 42.5828ZM19.6314 43.9114C19.4253 44.2117 19.0755 44.5346 18.4157 44.8162L20.7718 50.3343C22.3033 49.6804 23.6277 48.6922 24.5788 47.306L19.6314 43.9114ZM18.4233 44.813C17.7973 45.0783 16.9033 45.2678 15.6513 45.2678V51.2678C17.4769 51.2678 19.2113 50.9956 20.7642 50.3375L18.4233 44.813ZM15.6513 45.2678C14.4244 45.2678 13.5 45.0791 12.8079 44.7933L10.5174 50.3388C12.0905 50.9886 13.8252 51.2678 15.6513 51.2678V45.2678ZM12.8133 44.7955C12.1671 44.5271 11.7655 44.1816 11.4898 43.7827L6.55425 47.1945C7.54653 48.63 8.90538 49.6694 10.512 50.3366L12.8133 44.7955ZM11.5028 43.8017C11.2652 43.4523 11.0539 42.9046 11.0333 41.9954L5.03486 42.1311C5.07584 43.9424 5.52318 45.6784 6.54124 47.1756L11.5028 43.8017ZM8.03409 45.0632H11.9027V39.0632H8.03409V45.0632ZM8.9096 42.2666C8.98436 43.3666 9.31792 44.4833 10.0516 45.4568L14.8433 41.8457C14.8619 41.8705 14.8771 41.8949 14.8887 41.9169C14.9002 41.9388 14.9063 41.9548 14.9089 41.9623C14.914 41.9774 14.9019 41.9492 14.8958 41.8598L8.9096 42.2666ZM10.0813 45.4955C10.767 46.3754 11.6536 46.9973 12.6406 47.3899L14.858 41.8147C14.8023 41.7925 14.7837 41.7779 14.7872 41.7805C14.7884 41.7814 14.7926 41.7846 14.7984 41.7902C14.8043 41.7958 14.8095 41.8018 14.8136 41.807L10.0813 45.4955ZM12.6787 47.4047C13.6226 47.7653 14.6128 47.9162 15.6051 47.9162V41.9162C15.2186 41.9162 14.9716 41.8578 14.8199 41.7998L12.6787 47.4047ZM15.6051 47.9162C16.5642 47.9162 17.5424 47.7777 18.4709 47.4109L16.2663 41.8306C16.1976 41.8577 16.0002 41.9162 15.6051 41.9162V47.9162ZM18.4592 47.4155C19.3557 47.0656 20.2246 46.5082 20.8958 45.6579L16.1865 41.9401C16.2407 41.8715 16.2913 41.83 16.3186 41.8108C16.3436 41.7933 16.3367 41.8031 16.278 41.826L18.4592 47.4155ZM20.8958 45.6579C21.5993 44.7668 21.9567 43.7057 21.9567 42.5895H15.9567C15.9567 42.5084 15.9699 42.3918 16.0155 42.2589C16.0614 42.1253 16.1257 42.0171 16.1865 41.9401L20.8958 45.6579ZM21.9567 42.5895C21.9567 41.5225 21.6196 40.4414 20.8388 39.5464L16.3174 43.4906C16.1982 43.3539 16.0984 43.1865 16.0335 43.0029C15.9702 42.8238 15.9567 42.6766 15.9567 42.5895H21.9567ZM20.8627 39.5741C20.2222 38.8215 19.4165 38.338 18.6576 38.0169L16.3197 43.5427C16.4121 43.5818 16.4449 43.6049 16.4376 43.6C16.4293 43.5943 16.3702 43.553 16.2935 43.4628L20.8627 39.5741ZM18.6704 38.0224C17.9963 37.7335 17.2437 37.5015 16.4467 37.3094L15.0405 43.1423C15.6223 43.2826 16.033 43.4199 16.3069 43.5373L18.6704 38.0224ZM16.4743 37.3162L14.4153 36.7991L12.954 42.6185L15.0129 43.1355L16.4743 37.3162ZM14.3937 36.7938C13.1285 36.4861 12.3626 36.0596 11.907 35.6526L7.90974 40.1272C9.30075 41.3698 11.0523 42.156 12.9756 42.6238L14.3937 36.7938ZM11.907 35.6526C11.7105 35.4771 11.5297 35.2312 11.5326 34.57L5.5327 34.5436C5.5233 36.6769 6.25963 38.6531 7.90974 40.1272L11.907 35.6526ZM11.5326 34.5407C11.5296 33.9723 11.6692 33.6039 11.882 33.3081L7.01147 29.8041C5.99318 31.2195 5.52346 32.8515 5.53271 34.5729L11.5326 34.5407ZM11.8737 33.3196C12.1487 32.9411 12.56 32.5877 13.2198 32.2953L10.7887 26.8098C9.28186 27.4777 7.98812 28.46 7.01977 29.7926L11.8737 33.3196ZM13.2198 32.2953C13.8628 32.0103 14.6695 31.8324 15.6974 31.8324V25.8324C13.9679 25.8324 12.3124 26.1346 10.7887 26.8098L13.2198 32.2953ZM15.6974 31.8324C16.7616 31.8324 17.5434 32.0142 18.1211 32.2792L20.6232 26.8259C19.1081 26.1307 17.4401 25.8324 15.6974 25.8324V31.8324ZM18.1271 32.282C18.7417 32.5624 19.1099 32.8957 19.3513 33.2489L24.3049 29.8633C23.3768 28.5054 22.1077 27.503 20.6172 26.8231L18.1271 32.282ZM19.3513 33.2489C19.5758 33.5773 19.7236 33.9857 19.7334 34.5783L25.7326 34.4799C25.7053 32.8197 25.25 31.2461 24.3049 29.8633L19.3513 33.2489ZM22.733 31.5291H18.9013V37.5291H22.733V31.5291ZM28.2658 47.3537L26.7268 49.9289L26.7358 49.9342L26.7447 49.9395L28.2658 47.3537ZM25.8652 44.7685L23.1849 46.1161L23.191 46.128L25.8652 44.7685ZM25.8745 37.142L23.2063 35.7707L23.2033 35.7764L25.8745 37.142ZM28.2843 34.5661L29.812 37.1479L29.8233 37.1412L28.2843 34.5661ZM35.2459 34.3075L36.5517 31.6066L36.5517 31.6066L35.2459 34.3075ZM37.4526 36.2003L34.9564 37.8644L37.4526 36.2003ZM38.3482 39.0625V42.0625H41.5037L41.3444 38.911L38.3482 39.0625ZM34.6365 39.0625L31.6688 39.5012L32.0474 42.0625H34.6365V39.0625ZM33.8056 37.3544L31.6991 39.4905L31.7141 39.5052L31.7292 39.5198L33.8056 37.3544ZM30.4632 37.1974L32.2258 39.6251L32.2317 39.6208L30.4632 37.1974ZM29.4015 43.2173L26.6049 44.3034L26.6095 44.3151L26.6142 44.3268L29.4015 43.2173ZM30.4632 44.6669L32.2317 42.2435L32.2317 42.2435L30.4632 44.6669ZM33.2701 44.8885L31.9103 42.2143L31.901 42.2191L31.8918 42.2238L33.2701 44.8885ZM34.1657 44.0852L31.6761 42.4112L31.6695 42.4211L34.1657 44.0852ZM34.6365 42.8018V39.8018H32.0482L31.6689 42.3622L34.6365 42.8018ZM38.3482 42.8018L41.3434 42.972L41.5235 39.8018H38.3482V42.8018ZM37.4618 45.6641L34.9371 44.0437L34.934 44.0485L37.4618 45.6641ZM35.2921 47.5845L33.9504 44.9012L33.9504 44.9012L35.2921 47.5845ZM32.0144 45.277C30.9911 45.277 30.2891 45.0633 29.7869 44.7679L26.7447 49.9395C28.3353 50.8751 30.1324 51.277 32.0144 51.277V45.277ZM29.8048 44.7785C29.2601 44.453 28.8487 44.0172 28.5395 43.4089L23.191 46.128C24.002 47.7233 25.191 49.011 26.7268 49.9289L29.8048 44.7785ZM28.5455 43.4208C28.2335 42.8003 28.0343 42.0069 28.0343 40.9645H22.0343C22.0343 42.7904 22.389 44.533 23.185 46.1161L28.5455 43.4208ZM28.0343 40.9645C28.0343 39.9012 28.2374 39.1105 28.5456 38.5076L23.2033 35.7764C22.3913 37.3648 22.0343 39.1224 22.0343 40.9645H28.0343ZM28.5427 38.5134C28.8573 37.9013 29.271 37.468 29.812 37.1479L26.7565 31.9842C25.217 32.8951 24.0242 34.1792 23.2063 35.7707L28.5427 38.5134ZM29.8233 37.1412C30.3192 36.8448 31.0034 36.6335 31.9959 36.6335V30.6335C30.12 30.6335 28.3298 31.0439 26.7453 31.9909L29.8233 37.1412ZM31.9959 36.6335C32.8695 36.6335 33.4908 36.7912 33.9402 37.0085L36.5517 31.6066C35.1422 30.9252 33.5967 30.6335 31.9959 30.6335V36.6335ZM33.9402 37.0085C34.4161 37.2385 34.7291 37.5234 34.9564 37.8644L39.9487 34.5362C39.0928 33.2522 37.9347 32.2752 36.5517 31.6066L33.9402 37.0085ZM34.9564 37.8644C35.1624 38.1733 35.3205 38.5901 35.352 39.214L41.3444 38.911C41.2651 37.3436 40.8261 35.8523 39.9487 34.5362L34.9564 37.8644ZM38.3482 36.0625H34.6365V42.0625H38.3482V36.0625ZM37.6043 38.6238C37.4175 37.3604 36.8818 36.1478 35.8819 35.1891L31.7292 39.5198C31.7137 39.5049 31.6976 39.4867 31.6828 39.4663C31.668 39.4459 31.6582 39.4285 31.6526 39.417C31.6408 39.3927 31.6556 39.4117 31.6688 39.5012L37.6043 38.6238ZM35.912 35.2183C34.8189 34.1404 33.4354 33.6989 32.0605 33.6989V39.6989C32.1167 39.6989 32.0774 39.707 31.9819 39.6711C31.8784 39.6322 31.7765 39.5668 31.6991 39.4905L35.912 35.2183ZM32.0605 33.6989C30.8697 33.6989 29.706 34.0362 28.6948 34.7741L32.2317 39.6208C32.1969 39.6462 32.149 39.6714 32.0981 39.6872C32.0495 39.7024 32.0311 39.6989 32.0605 39.6989V33.6989ZM28.7007 34.7698C27.7039 35.4935 27.0438 36.4731 26.6271 37.5097L32.1942 39.7474C32.2394 39.635 32.2734 39.5862 32.2798 39.5774C32.2842 39.5714 32.2675 39.5948 32.2258 39.6251L28.7007 34.7698ZM26.6271 37.5097C26.1942 38.5869 26.0321 39.749 26.0321 40.9091H32.0321C32.0321 40.2841 32.1225 39.9259 32.1942 39.7474L26.6271 37.5097ZM26.0321 40.9091C26.0321 42.0697 26.1879 43.2295 26.6049 44.3034L32.198 42.1313C32.1226 41.9372 32.0321 41.5582 32.0321 40.9091H26.0321ZM26.6142 44.3268C27.0314 45.375 27.6949 46.3606 28.6948 47.0903L32.2317 42.2435C32.2684 42.2704 32.2822 42.2905 32.2764 42.2825C32.2684 42.2716 32.2339 42.2212 32.1887 42.1078L26.6142 44.3268ZM28.6948 47.0903C29.706 47.8281 30.8697 48.1655 32.0605 48.1655V42.1655C32.0311 42.1655 32.0495 42.1619 32.0981 42.1771C32.149 42.193 32.1969 42.2182 32.2317 42.2435L28.6948 47.0903ZM32.0605 48.1655C32.9322 48.1655 33.8172 47.9831 34.6483 47.5531L31.8918 42.2238C31.9441 42.1968 31.9928 42.1805 32.0302 42.1719C32.0663 42.1637 32.0791 42.1655 32.0605 42.1655V48.1655ZM34.6298 47.5626C35.4687 47.1361 36.1525 46.5132 36.6618 45.7493L31.6695 42.4211C31.6852 42.3976 31.7155 42.3587 31.7633 42.3159C31.8114 42.2727 31.8629 42.2384 31.9103 42.2143L34.6298 47.5626ZM36.6552 45.7592C37.1838 44.9731 37.476 44.1066 37.6042 43.2415L31.6689 42.3622C31.6589 42.43 31.648 42.4606 31.647 42.4633C31.6465 42.4646 31.6482 42.4597 31.6532 42.45C31.6581 42.4402 31.6656 42.4269 31.6761 42.4112L36.6552 45.7592ZM34.6365 45.8018H38.3482V39.8018H34.6365V45.8018ZM35.353 42.6317C35.3176 43.2557 35.1583 43.699 34.9371 44.0437L39.9866 47.2844C40.8241 45.9795 41.2557 44.5146 41.3434 42.972L35.353 42.6317ZM34.934 44.0485C34.7209 44.3819 34.4207 44.6661 33.9504 44.9012L36.6337 50.2678C38.0101 49.5796 39.1563 48.5835 39.9897 47.2796L34.934 44.0485ZM33.9504 44.9012C33.5262 45.1134 32.9124 45.277 32.0144 45.277V51.277C33.64 51.277 35.2114 50.979 36.6337 50.2678L33.9504 44.9012ZM44.7997 39.8011L41.7999 39.7708L41.7997 39.786V39.8011H44.7997ZM44.7997 48V51H47.7997V48H44.7997ZM40.8665 48H37.8665V51H40.8665V48ZM40.8665 29.0909V26.0909H37.8665V29.0909H40.8665ZM44.6889 29.0909H47.6889V26.0909H44.6889V29.0909ZM44.6889 36.3203H41.6889V39.3203H44.6889V36.3203ZM44.8551 36.3203V39.3203H46.9199L47.6573 37.3917L44.8551 36.3203ZM46.4062 34.3537L48.0654 36.8532L48.0728 36.8482L48.0802 36.8432L46.4062 34.3537ZM51.669 34.2798L50.148 36.8656L50.1608 36.8732L50.1736 36.8805L51.669 34.2798ZM53.3864 36.1172L50.7114 37.4753L50.7176 37.4876L50.724 37.4999L53.3864 36.1172ZM53.9957 38.9702L50.9958 38.9535L50.9957 38.9618V38.9702H53.9957ZM53.9957 48V51H56.9957V48H53.9957ZM50.0625 48H47.0625V51H50.0625V48ZM50.0625 39.6719L47.0626 39.6507L47.0625 39.6613V39.6719H50.0625ZM49.3977 37.6314L47.1804 39.6522L47.1874 39.6598L47.1944 39.6674L49.3977 37.6314ZM46.1108 37.2436L44.6605 34.6174L44.6521 34.6221L44.6438 34.6268L46.1108 37.2436ZM45.1506 38.2408L42.5056 36.8251L42.5019 36.832L42.4983 36.8388L45.1506 38.2408ZM41.7997 39.8011V48H47.7997V39.8011H41.7997ZM44.7997 45H40.8665V51H44.7997V45ZM43.8665 48V29.0909H37.8665V48H43.8665ZM40.8665 32.0909H44.6889V26.0909H40.8665V32.0909ZM41.6889 29.0909V36.3203H47.6889V29.0909H41.6889ZM44.6889 39.3203H44.8551V33.3203H44.6889V39.3203ZM47.6573 37.3917C47.7651 37.1096 47.8965 36.9652 48.0654 36.8532L44.7471 31.8542C43.488 32.6901 42.5852 33.8568 42.053 35.2489L47.6573 37.3917ZM48.0802 36.8432C48.1877 36.771 48.4616 36.6335 49.093 36.6335V30.6335C47.5701 30.6335 46.0528 30.9762 44.7323 31.8642L48.0802 36.8432ZM49.093 36.6335C49.6291 36.6335 49.9455 36.7465 50.148 36.8656L53.1901 31.694C51.9276 30.9514 50.5266 30.6335 49.093 30.6335V36.6335ZM50.1736 36.8805C50.379 36.9987 50.5544 37.166 50.7114 37.4753L56.0614 34.7591C55.4059 33.468 54.4363 32.4104 53.1644 31.6791L50.1736 36.8805ZM50.724 37.4999C50.8647 37.7708 50.9999 38.2184 50.9958 38.9535L56.9957 38.9868C57.0039 37.5061 56.7328 36.0517 56.0487 34.7344L50.724 37.4999ZM50.9957 38.9702V48H56.9957V38.9702H50.9957ZM53.9957 45H50.0625V51H53.9957V45ZM53.0625 48V39.6719H47.0625V48H53.0625ZM53.0624 39.693C53.0722 38.3074 52.7156 36.8015 51.6011 35.5954L47.1944 39.6674C47.1521 39.6216 47.1176 39.5736 47.0915 39.5282C47.0658 39.4835 47.0533 39.4501 47.0485 39.4355C47.04 39.4094 47.0639 39.4674 47.0626 39.6507L53.0624 39.693ZM51.615 35.6106C50.4827 34.3682 48.9794 33.902 47.5327 33.902V39.902C47.6314 39.902 47.6054 39.917 47.5064 39.8783C47.4568 39.8589 47.3979 39.8294 47.3365 39.7873C47.275 39.7452 47.2225 39.6983 47.1804 39.6522L51.615 35.6106ZM47.5327 33.902C46.5602 33.902 45.5747 34.1126 44.6605 34.6174L47.5611 39.8698C47.5435 39.8795 47.5263 39.8874 47.5105 39.8934C47.4948 39.8995 47.483 39.9028 47.4764 39.9044C47.4626 39.9077 47.478 39.902 47.5327 39.902V33.902ZM44.6438 34.6268C43.7058 35.1526 42.9914 35.9175 42.5056 36.8251L47.7956 39.6564C47.7921 39.6629 47.7717 39.6982 47.727 39.7446C47.6813 39.7921 47.6286 39.832 47.5778 39.8604L44.6438 34.6268ZM42.4983 36.8388C41.9979 37.7854 41.8097 38.8004 41.7999 39.7708L47.7996 39.8314C47.8021 39.5832 47.8477 39.5578 47.8029 39.6427L42.4983 36.8388ZM59.7779 47.3629L58.2501 49.9448L58.2591 49.9501L58.2682 49.9554L59.7779 47.3629ZM57.3681 44.7962L54.6999 46.1675L54.703 46.1736L57.3681 44.7962ZM57.3681 37.1236L60.0332 38.501L60.0363 38.4949L57.3681 37.1236ZM59.7779 34.5568L61.2943 37.1454L61.2989 37.1426L59.7779 34.5568ZM67.2104 34.5568L65.6827 37.1387L65.6917 37.144L65.7007 37.1493L67.2104 34.5568ZM69.6294 37.1236L66.9612 38.495L66.9644 38.501L69.6294 37.1236ZM69.6294 44.7962L72.2945 46.1736L72.2976 46.1675L69.6294 44.7962ZM67.2104 47.3629L68.7268 49.9515L68.7315 49.9487L67.2104 47.3629ZM65.1515 44.6761L67.0878 46.9675L67.0972 46.9596L67.1065 46.9516L65.1515 44.6761ZM66.1394 43.1435L63.3099 42.1464L63.3057 42.1584L63.3015 42.1705L66.1394 43.1435ZM66.1394 38.7301L63.3015 39.7031L63.3057 39.7151L63.3099 39.7272L66.1394 38.7301ZM61.8553 37.1974L59.9316 34.8954L59.9238 34.9019L59.916 34.9085L61.8553 37.1974ZM60.8489 38.7301L58.0194 37.7331L58.0152 37.7451L58.0111 37.7571L60.8489 38.7301ZM60.8489 43.1435L58.0111 44.1164L58.0152 44.1285L58.0194 44.1405L60.8489 43.1435ZM61.8553 44.6761L59.916 46.9651L59.9331 46.9796L59.9504 46.9938L61.8553 44.6761ZM63.4988 45.277C62.4966 45.277 61.7975 45.0674 61.2876 44.7705L58.2682 49.9554C59.851 50.8772 61.6325 51.277 63.4988 51.277V45.277ZM61.3056 44.7811C60.7603 44.4584 60.3464 44.0249 60.0331 43.4187L54.703 46.1736C55.5223 47.7588 56.7149 49.0364 58.2501 49.9448L61.3056 44.7811ZM60.0363 43.4248C59.7228 42.8148 59.5186 42.0224 59.5186 40.9645H53.5186C53.5186 42.8119 53.8808 44.5739 54.6999 46.1675L60.0363 43.4248ZM59.5186 40.9645C59.5186 39.8893 59.7247 39.0978 60.0331 38.501L54.703 35.7461C53.8789 37.3406 53.5186 39.1098 53.5186 40.9645H59.5186ZM60.0363 38.4949C60.3496 37.8853 60.7599 37.4584 61.2942 37.1454L58.2615 31.9683C56.7154 32.874 55.5191 34.1583 54.6999 35.7522L60.0363 38.4949ZM61.2989 37.1426C61.8068 36.8439 62.5017 36.6335 63.4988 36.6335V30.6335C61.6274 30.6335 59.8418 31.0387 58.2568 31.971L61.2989 37.1426ZM63.4988 36.6335C64.4964 36.6335 65.1848 36.8441 65.6827 37.1387L68.7381 31.9749C67.1555 31.0385 65.3695 30.6335 63.4988 30.6335V36.6335ZM65.7007 37.1493C66.2404 37.4636 66.6503 37.89 66.9612 38.4949L72.2976 35.7522C71.476 34.1536 70.2732 32.8688 68.7201 31.9644L65.7007 37.1493ZM66.9644 38.501C67.2728 39.0978 67.4789 39.8893 67.4789 40.9645H73.4789C73.4789 39.1098 73.1186 37.3406 72.2945 35.7461L66.9644 38.501ZM67.4789 40.9645C67.4789 42.0224 67.2747 42.8148 66.9612 43.4248L72.2976 46.1675C73.1167 44.5739 73.4789 42.8119 73.4789 40.9645H67.4789ZM66.9644 43.4187C66.6535 44.0202 66.24 44.4532 65.6893 44.7771L68.7315 49.9487C70.2737 49.0416 71.4728 47.7634 72.2945 46.1736L66.9644 43.4187ZM65.694 44.7744C65.1941 45.0672 64.5015 45.277 63.4988 45.277V51.277C65.3644 51.277 67.1462 50.8774 68.7268 49.9515L65.694 44.7744ZM63.5172 48.2301C64.7731 48.2301 66.0339 47.8582 67.0878 46.9675L63.2151 42.3848C63.2852 42.3255 63.3703 42.2781 63.452 42.2504C63.5284 42.2245 63.5593 42.2301 63.5172 42.2301V48.2301ZM67.1065 46.9516C68.018 46.1685 68.6149 45.1733 68.9772 44.1164L63.3015 42.1705C63.2599 42.2921 63.2228 42.3578 63.2046 42.386C63.1879 42.412 63.184 42.4113 63.1964 42.4006L67.1065 46.9516ZM68.9689 44.1405C69.3298 43.1162 69.481 42.0341 69.481 40.9368H63.481C63.481 41.4891 63.4045 41.8781 63.3099 42.1464L68.9689 44.1405ZM69.481 40.9368C69.481 39.8395 69.3298 38.7574 68.9689 37.7331L63.3099 39.7272C63.4045 39.9955 63.481 40.3845 63.481 40.9368H69.481ZM68.9772 37.7571C68.6149 36.7003 68.018 35.705 67.1065 34.9219L63.1964 39.4729C63.184 39.4623 63.1879 39.4616 63.2046 39.4876C63.2228 39.5158 63.2599 39.5815 63.3015 39.7031L68.9772 37.7571ZM67.1065 34.9219C66.0532 34.017 64.7858 33.6342 63.5172 33.6342V39.6342C63.5543 39.6342 63.5184 39.6392 63.4376 39.6113C63.3517 39.5817 63.2654 39.5322 63.1964 39.4729L67.1065 34.9219ZM63.5172 33.6342C62.2487 33.6342 60.9881 34.0126 59.9316 34.8954L63.7789 39.4995C63.7197 39.549 63.6449 39.5912 63.5707 39.6163C63.5011 39.6399 63.4746 39.6342 63.5172 39.6342V33.6342ZM59.916 34.9085C58.9991 35.6854 58.392 36.6757 58.0194 37.7331L63.6784 39.7272C63.7212 39.6056 63.7593 39.5388 63.779 39.5088C63.7973 39.4811 63.8034 39.4789 63.7945 39.4864L59.916 34.9085ZM58.0111 37.7571C57.6625 38.7738 57.5165 39.8473 57.5165 40.9368H63.5165C63.5165 40.3766 63.5921 39.979 63.6867 39.7031L58.0111 37.7571ZM57.5165 40.9368C57.5165 42.0262 57.6625 43.0998 58.0111 44.1164L63.6867 42.1705C63.5921 41.8945 63.5165 41.497 63.5165 40.9368H57.5165ZM58.0194 44.1405C58.392 45.1979 58.9991 46.1882 59.916 46.9651L63.7945 42.3872C63.8034 42.3947 63.7973 42.3925 63.779 42.3647C63.7593 42.3348 63.7212 42.268 63.6784 42.1464L58.0194 44.1405ZM59.9504 46.9938C61.0072 47.8624 62.2612 48.2301 63.5172 48.2301V42.2301C63.4697 42.2301 63.4912 42.2238 63.5565 42.2456C63.6264 42.2689 63.7 42.309 63.7602 42.3585L59.9504 46.9938ZM75.7232 47.3629L74.1955 49.9448L74.2044 49.9501L74.2135 49.9554L75.7232 47.3629ZM73.3134 44.7962L70.6452 46.1675L70.6483 46.1736L73.3134 44.7962ZM73.3134 37.1236L75.9785 38.501L75.9816 38.4949L73.3134 37.1236ZM75.7232 34.5568L77.2396 37.1454L77.2442 37.1426L75.7232 34.5568ZM83.1557 34.5568L81.628 37.1387L81.637 37.144L81.646 37.1493L83.1557 34.5568ZM85.5748 37.1236L82.9065 38.495L82.9097 38.501L85.5748 37.1236ZM85.5748 44.7962L88.2398 46.1736L88.243 46.1675L85.5748 44.7962ZM83.1557 47.3629L84.6721 49.9515L84.6768 49.9487L83.1557 47.3629ZM81.0968 44.6761L83.0331 46.9675L83.0425 46.9596L83.0518 46.9516L81.0968 44.6761ZM82.0847 43.1435L79.2552 42.1464L79.251 42.1584L79.2469 42.1705L82.0847 43.1435ZM82.0847 38.7301L79.2469 39.7031L79.251 39.7151L79.2552 39.7272L82.0847 38.7301ZM77.8006 37.1974L75.8769 34.8954L75.8691 34.9019L75.8614 34.9085L77.8006 37.1974ZM76.7942 38.7301L73.9647 37.7331L73.9605 37.7451L73.9564 37.7571L76.7942 38.7301ZM76.7942 43.1435L73.9564 44.1164L73.9605 44.1285L73.9647 44.1405L76.7942 43.1435ZM77.8006 44.6761L75.8614 46.9651L75.8784 46.9796L75.8957 46.9938L77.8006 44.6761ZM79.4441 45.277C78.4419 45.277 77.7428 45.0674 77.2329 44.7705L74.2135 49.9554C75.7964 50.8772 77.5778 51.277 79.4441 51.277V45.277ZM77.2509 44.7811C76.7056 44.4584 76.2918 44.0249 75.9785 43.4187L70.6483 46.1736C71.4676 47.7588 72.6602 49.0364 74.1955 49.9448L77.2509 44.7811ZM75.9816 43.4248C75.6681 42.8148 75.464 42.0224 75.464 40.9645H69.464C69.464 42.8119 69.8261 44.5739 70.6452 46.1675L75.9816 43.4248ZM75.464 40.9645C75.464 39.8893 75.67 39.0978 75.9785 38.501L70.6483 35.7461C69.8242 37.3406 69.464 39.1098 69.464 40.9645H75.464ZM75.9816 38.4949C76.2949 37.8853 76.7052 37.4584 77.2396 37.1454L74.2068 31.9683C72.6607 32.874 71.4644 34.1583 70.6452 35.7522L75.9816 38.4949ZM77.2442 37.1426C77.7521 36.8439 78.447 36.6335 79.4441 36.6335V30.6335C77.5727 30.6335 75.7871 31.0387 74.2021 31.971L77.2442 37.1426ZM79.4441 36.6335C80.4417 36.6335 81.1301 36.8441 81.628 37.1387L84.6834 31.9749C83.1009 31.0385 81.3148 30.6335 79.4441 30.6335V36.6335ZM81.646 37.1493C82.1857 37.4636 82.5956 37.89 82.9065 38.4949L88.243 35.7522C87.4213 34.1536 86.2185 32.8688 84.6654 31.9644L81.646 37.1493ZM82.9097 38.501C83.2181 39.0978 83.4242 39.8893 83.4242 40.9645H89.4242C89.4242 39.1098 89.0639 37.3406 88.2398 35.7461L82.9097 38.501ZM83.4242 40.9645C83.4242 42.0224 83.2201 42.8148 82.9065 43.4248L88.243 46.1675C89.062 44.5739 89.4242 42.8119 89.4242 40.9645H83.4242ZM82.9097 43.4187C82.5988 44.0202 82.1853 44.4532 81.6347 44.7771L84.6768 49.9487C86.219 49.0416 87.4181 47.7634 88.2398 46.1736L82.9097 43.4187ZM81.6393 44.7744C81.1394 45.0672 80.4468 45.277 79.4441 45.277V51.277C81.3097 51.277 83.0915 50.8774 84.6721 49.9515L81.6393 44.7744ZM79.4625 48.2301C80.7184 48.2301 81.9792 47.8582 83.0331 46.9675L79.1604 42.3848C79.2305 42.3255 79.3156 42.2781 79.3973 42.2504C79.4738 42.2245 79.5046 42.2301 79.4625 42.2301V48.2301ZM83.0518 46.9516C83.9633 46.1685 84.5602 45.1733 84.9225 44.1164L79.2469 42.1705C79.2052 42.2921 79.1681 42.3578 79.15 42.386C79.1332 42.412 79.1293 42.4113 79.1418 42.4006L83.0518 46.9516ZM84.9142 44.1405C85.2751 43.1162 85.4263 42.0341 85.4263 40.9368H79.4263C79.4263 41.4891 79.3498 41.8781 79.2552 42.1464L84.9142 44.1405ZM85.4263 40.9368C85.4263 39.8395 85.2751 38.7574 84.9142 37.7331L79.2552 39.7272C79.3498 39.9955 79.4263 40.3845 79.4263 40.9368H85.4263ZM84.9225 37.7571C84.5602 36.7003 83.9633 35.705 83.0518 34.9219L79.1418 39.4729C79.1293 39.4623 79.1332 39.4616 79.15 39.4876C79.1681 39.5158 79.2052 39.5815 79.2469 39.7031L84.9225 37.7571ZM83.0518 34.9219C81.9985 34.017 80.7311 33.6342 79.4625 33.6342V39.6342C79.4996 39.6342 79.4637 39.6392 79.383 39.6113C79.297 39.5817 79.2107 39.5322 79.1418 39.4729L83.0518 34.9219ZM79.4625 33.6342C78.194 33.6342 76.9334 34.0126 75.8769 34.8954L79.7243 39.4995C79.665 39.549 79.5902 39.5912 79.516 39.6163C79.4464 39.6399 79.4199 39.6342 79.4625 39.6342V33.6342ZM75.8614 34.9085C74.9444 35.6854 74.3373 36.6757 73.9647 37.7331L79.6237 39.7272C79.6665 39.6056 79.7047 39.5388 79.7243 39.5088C79.7426 39.4811 79.7487 39.4789 79.7399 39.4864L75.8614 34.9085ZM73.9564 37.7571C73.6078 38.7738 73.4618 39.8473 73.4618 40.9368H79.4618C79.4618 40.3766 79.5374 39.979 79.632 39.7031L73.9564 37.7571ZM73.4618 40.9368C73.4618 42.0262 73.6078 43.0998 73.9564 44.1164L79.632 42.1705C79.5374 41.8945 79.4618 41.497 79.4618 40.9368H73.4618ZM73.9647 44.1405C74.3373 45.1979 74.9444 46.1882 75.8614 46.9651L79.7399 42.3872C79.7487 42.3947 79.7426 42.3925 79.7243 42.3647C79.7047 42.3348 79.6665 42.268 79.6237 42.1464L73.9647 44.1405ZM75.8957 46.9938C76.9525 47.8624 78.2065 48.2301 79.4625 48.2301V42.2301C79.415 42.2301 79.4365 42.2238 79.5018 42.2456C79.5718 42.2689 79.6453 42.309 79.7055 42.3585L75.8957 46.9938ZM92.915 29.0909H95.915V26.0909H92.915V29.0909ZM92.915 48V51H95.915V48H92.915ZM88.9817 48H85.9817V51H88.9817V48ZM88.9817 29.0909V26.0909H85.9817V29.0909H88.9817ZM89.915 29.0909V48H95.915V29.0909H89.915ZM92.915 45H88.9817V51H92.915V45ZM91.9817 48V29.0909H85.9817V48H91.9817ZM88.9817 32.0909H92.915V26.0909H88.9817V32.0909ZM99.9989 39.8011L96.9991 39.7708L96.9989 39.786V39.8011H99.9989ZM99.9989 48V51H102.999V48H99.9989ZM96.0657 48H93.0657V51H96.0657V48ZM96.0657 29.0909V26.0909H93.0657V29.0909H96.0657ZM99.8881 29.0909H102.888V26.0909H99.8881V29.0909ZM99.8881 36.3203H96.8881V39.3203H99.8881V36.3203ZM100.054 36.3203V39.3203H102.119L102.856 37.3917L100.054 36.3203ZM101.605 34.3537L103.265 36.8532L103.272 36.8482L103.279 36.8432L101.605 34.3537ZM106.868 34.2798L105.347 36.8656L105.36 36.8732L105.373 36.8805L106.868 34.2798ZM108.586 36.1172L105.911 37.4753L105.917 37.4876L105.923 37.4999L108.586 36.1172ZM109.195 38.9702L106.195 38.9535L106.195 38.9618V38.9702H109.195ZM109.195 48V51H112.195V48H109.195ZM105.262 48H102.262V51H105.262V48ZM105.262 39.6719L102.262 39.6507L102.262 39.6613V39.6719H105.262ZM104.597 37.6314L102.38 39.6522L102.387 39.6598L102.394 39.6674L104.597 37.6314ZM101.31 37.2436L99.8597 34.6174L99.8514 34.6221L99.843 34.6268L101.31 37.2436ZM100.35 38.2408L97.7048 36.8251L97.7011 36.832L97.6975 36.8388L100.35 38.2408ZM96.9989 39.8011V48H102.999V39.8011H96.9989ZM99.9989 45H96.0657V51H99.9989V45ZM99.0657 48V29.0909H93.0657V48H99.0657ZM96.0657 32.0909H99.8881V26.0909H96.0657V32.0909ZM96.8881 29.0909V36.3203H102.888V29.0909H96.8881ZM99.8881 39.3203H100.054V33.3203H99.8881V39.3203ZM102.856 37.3917C102.964 37.1096 103.096 36.9652 103.265 36.8532L99.9463 31.8542C98.6872 32.6901 97.7845 33.8568 97.2522 35.2489L102.856 37.3917ZM103.279 36.8432C103.387 36.771 103.661 36.6335 104.292 36.6335V30.6335C102.769 30.6335 101.252 30.9762 99.9315 31.8642L103.279 36.8432ZM104.292 36.6335C104.828 36.6335 105.145 36.7465 105.347 36.8656L108.389 31.694C107.127 30.9514 105.726 30.6335 104.292 30.6335V36.6335ZM105.373 36.8805C105.578 36.9987 105.754 37.166 105.911 37.4753L111.261 34.7591C110.605 33.468 109.636 32.4104 108.364 31.6791L105.373 36.8805ZM105.923 37.4999C106.064 37.7708 106.199 38.2184 106.195 38.9535L112.195 38.9868C112.203 37.5061 111.932 36.0517 111.248 34.7344L105.923 37.4999ZM106.195 38.9702V48H112.195V38.9702H106.195ZM109.195 45H105.262V51H109.195V45ZM108.262 48V39.6719H102.262V48H108.262ZM108.262 39.693C108.271 38.3074 107.915 36.8015 106.8 35.5954L102.394 39.6674C102.351 39.6216 102.317 39.5736 102.291 39.5282C102.265 39.4835 102.252 39.4501 102.248 39.4355C102.239 39.4094 102.263 39.4674 102.262 39.6507L108.262 39.693ZM106.814 35.6106C105.682 34.3682 104.179 33.902 102.732 33.902V39.902C102.831 39.902 102.805 39.917 102.706 39.8783C102.656 39.8589 102.597 39.8294 102.536 39.7873C102.474 39.7452 102.422 39.6983 102.38 39.6522L106.814 35.6106ZM102.732 33.902C101.759 33.902 100.774 34.1126 99.8597 34.6174L102.76 39.8698C102.743 39.8795 102.726 39.8874 102.71 39.8934C102.694 39.8995 102.682 39.9028 102.676 39.9044C102.662 39.9077 102.677 39.902 102.732 39.902V33.902ZM99.843 34.6268C98.905 35.1526 98.1906 35.9175 97.7048 36.8251L102.995 39.6564C102.991 39.6629 102.971 39.6982 102.926 39.7446C102.881 39.7921 102.828 39.832 102.777 39.8604L99.843 34.6268ZM97.6975 36.8388C97.1972 37.7854 97.0089 38.8004 96.9991 39.7708L102.999 39.8314C103.001 39.5832 103.047 39.5578 103.002 39.6427L97.6975 36.8388ZM121.385 41.9616H118.385V41.9762L118.385 41.9908L121.385 41.9616ZM121.385 33.8182V30.8182H118.385V33.8182H121.385ZM125.318 33.8182H128.318V30.8182H125.318V33.8182ZM125.318 48V51H128.318V48H125.318ZM121.542 48H118.542V51H121.542V48ZM121.542 45.424H124.542V42.424H121.542V45.424ZM121.394 45.424V42.424H119.335L118.594 44.3457L121.394 45.424ZM119.797 47.4276L118.114 44.9441L118.104 44.9506L119.797 47.4276ZM114.589 47.5384L116.13 44.9639L116.13 44.9639L114.589 47.5384ZM112.9 45.701L110.221 47.0509L110.225 47.0592L110.229 47.0674L112.9 45.701ZM112.29 42.848H109.29V42.8563L109.29 42.8647L112.29 42.848ZM112.29 33.8182V30.8182H109.29V33.8182H112.29ZM116.224 33.8182H119.224V30.8182H116.224V33.8182ZM116.224 42.1463H113.224V42.1573L113.224 42.1684L116.224 42.1463ZM116.898 44.1314L119.115 42.1106L119.115 42.1106L116.898 44.1314ZM120.009 44.5376L121.398 47.1967L121.414 47.1886L121.429 47.1803L120.009 44.5376ZM121.006 43.5589L118.434 42.0155L118.426 42.0291L118.418 42.0427L121.006 43.5589ZM124.385 41.9616V33.8182H118.385V41.9616H124.385ZM121.385 36.8182H125.318V30.8182H121.385V36.8182ZM122.318 33.8182V48H128.318V33.8182H122.318ZM125.318 45H121.542V51H125.318V45ZM124.542 48V45.424H118.542V48H124.542ZM121.542 42.424H121.394V48.424H121.542V42.424ZM118.594 44.3457C118.497 44.599 118.357 44.779 118.114 44.9441L121.48 49.911C122.726 49.0666 123.651 47.9109 124.194 46.5023L118.594 44.3457ZM118.104 44.9506C117.953 45.054 117.67 45.1847 117.091 45.1847V51.1847C118.643 51.1847 120.163 50.8106 121.489 49.9045L118.104 44.9506ZM117.091 45.1847C116.614 45.1847 116.326 45.0816 116.13 44.9639L113.049 50.1128C114.293 50.8569 115.673 51.1847 117.091 51.1847V45.1847ZM116.13 44.9639C115.923 44.8402 115.737 44.6608 115.57 44.3346L110.229 47.0674C110.875 48.3293 111.816 49.3748 113.049 50.1128L116.13 44.9639ZM115.579 44.3511C115.432 44.0599 115.294 43.5875 115.29 42.8313L109.29 42.8647C109.298 44.3244 109.567 45.754 110.221 47.0509L115.579 44.3511ZM115.29 42.848V33.8182H109.29V42.848H115.29ZM112.29 36.8182H116.224V30.8182H112.29V36.8182ZM113.224 33.8182V42.1463H119.224V33.8182H113.224ZM113.224 42.1684C113.234 43.5372 113.614 44.9825 114.68 46.1522L119.115 42.1106C119.148 42.1474 119.177 42.1869 119.199 42.2252C119.221 42.2631 119.233 42.292 119.237 42.3059C119.246 42.3319 119.225 42.2837 119.223 42.1242L113.224 42.1684ZM114.68 46.1522C115.77 47.3478 117.214 47.8608 118.68 47.8608V41.8608C118.635 41.8608 118.695 41.8542 118.812 41.902C118.937 41.9534 119.044 42.0333 119.115 42.1106L114.68 46.1522ZM118.68 47.8608C119.628 47.8608 120.549 47.6404 121.398 47.1967L118.62 41.8786C118.622 41.8777 118.626 41.8754 118.634 41.8725C118.642 41.8697 118.65 41.867 118.659 41.8649C118.678 41.8602 118.687 41.8608 118.68 41.8608V47.8608ZM121.429 47.1803C122.36 46.6802 123.083 45.9488 123.595 45.0752L118.418 42.0427C118.416 42.0457 118.43 42.0213 118.466 41.9857C118.503 41.9492 118.547 41.9176 118.589 41.895L121.429 47.1803ZM123.579 45.1024C124.188 44.0872 124.395 42.9766 124.385 41.9325L118.385 41.9908C118.386 42.1025 118.375 42.1484 118.376 42.1447C118.376 42.1422 118.38 42.1278 118.389 42.1041C118.399 42.0802 118.413 42.0498 118.434 42.0155L123.579 45.1024ZM128.538 48H125.538V51H128.538V48ZM128.538 29.0909V26.0909H125.538V29.0909H128.538ZM132.471 29.0909H135.471V26.0909H132.471V29.0909ZM132.471 36.2003H129.471V39.2003H132.471V36.2003ZM132.591 36.2003V39.2003H134.528L135.325 37.435L132.591 36.2003ZM133.339 35.0369L131.032 33.1199L131.029 33.1235L133.339 35.0369ZM134.632 34.0398L135.973 36.7231L135.986 36.7169L134.632 34.0398ZM139.488 34.446L137.908 36.9961L137.914 37.0001L137.921 37.0041L139.488 34.446ZM141.584 36.8743L138.883 38.179L138.886 38.185L141.584 36.8743ZM141.603 44.9347L138.886 43.661L138.883 43.6677L141.603 44.9347ZM139.534 47.3999L141.149 49.9286L141.153 49.9257L139.534 47.3999ZM134.669 47.8523L133.378 50.5603L133.39 50.566L134.669 47.8523ZM133.367 46.9013L131.107 48.8743L131.115 48.8832L131.123 48.8921L133.367 46.9013ZM132.591 45.7287L135.324 44.4905L134.526 42.7287H132.591V45.7287ZM132.416 45.7287V42.7287H129.416V45.7287H132.416ZM132.416 48V51H135.416V48H132.416ZM133.755 44.5838L131.893 46.9359L131.903 46.9439L131.913 46.9519L133.755 44.5838ZM136.995 44.5746L138.857 46.9267L138.867 46.9188L138.877 46.9108L136.995 44.5746ZM138.002 43.0973L135.187 42.0589L135.184 42.0666L135.182 42.0743L138.002 43.0973ZM138.011 38.7486L140.828 37.7166L140.828 37.7166L138.011 38.7486ZM137.005 37.2898L138.867 34.9376L138.867 34.9376L137.005 37.2898ZM133.745 37.2713L131.924 34.8873L131.916 34.8934L131.908 34.8997L133.745 37.2713ZM132.739 38.7116L129.931 37.6552L129.931 37.6552L132.739 38.7116ZM131.538 48V29.0909H125.538V48H131.538ZM128.538 32.0909H132.471V26.0909H128.538V32.0909ZM129.471 29.0909V36.2003H135.471V29.0909H129.471ZM132.471 39.2003H132.591V33.2003H132.471V39.2003ZM135.325 37.435C135.366 37.3444 135.458 37.1818 135.65 36.9504L131.029 33.1235C130.568 33.68 130.161 34.2929 129.857 34.9655L135.325 37.435ZM135.647 36.954C135.679 36.9146 135.765 36.8275 135.973 36.7231L133.29 31.3565C132.44 31.7814 131.664 32.3591 131.032 33.1199L135.647 36.954ZM135.986 36.7169C135.988 36.7156 136.157 36.6335 136.626 36.6335V30.6335C135.507 30.6335 134.346 30.8223 133.278 31.3627L135.986 36.7169ZM136.626 36.6335C137.105 36.6335 137.511 36.7503 137.908 36.9961L141.069 31.896C139.717 31.0584 138.215 30.6335 136.626 30.6335V36.6335ZM137.921 37.0041C138.225 37.1901 138.565 37.522 138.883 38.179L144.286 35.5696C143.557 34.06 142.5 32.773 141.056 31.888L137.921 37.0041ZM138.886 38.185C139.153 38.7349 139.369 39.6029 139.369 40.9276H145.369C145.369 39.0022 145.062 37.168 144.283 35.5636L138.886 38.185ZM139.369 40.9276C139.369 42.2017 139.161 43.0748 138.886 43.661L144.319 46.2084C145.066 44.6156 145.369 42.8172 145.369 40.9276H139.369ZM138.883 43.6677C138.582 44.3153 138.242 44.6649 137.916 44.874L141.153 49.9257C142.575 49.0145 143.614 47.7207 144.322 46.2016L138.883 43.6677ZM137.92 44.8711C137.557 45.1027 137.15 45.2308 136.617 45.2308V51.2308C138.238 51.2308 139.776 50.8049 141.149 49.9286L137.92 44.8711ZM136.617 45.2308C136.173 45.2308 135.985 45.1561 135.948 45.1385L133.39 50.566C134.424 51.0532 135.535 51.2308 136.617 51.2308V45.2308ZM135.96 45.1443C135.739 45.0391 135.646 44.95 135.611 44.9104L131.123 48.8921C131.765 49.6158 132.54 50.1607 133.378 50.5603L135.96 45.1443ZM135.627 44.9283C135.445 44.7205 135.361 44.5727 135.324 44.4905L129.859 46.9669C130.178 47.6725 130.611 48.3065 131.107 48.8743L135.627 44.9283ZM132.591 42.7287H132.416V48.7287H132.591V42.7287ZM129.416 45.7287V48H135.416V45.7287H129.416ZM132.416 45H128.538V51H132.416V45ZM129.388 40.9091C129.388 42.0213 129.541 43.1261 129.928 44.1631L135.55 42.0684C135.469 41.8498 135.388 41.4835 135.388 40.9091H129.388ZM129.928 44.1631C130.317 45.2084 130.946 46.1866 131.893 46.9359L135.617 42.2317C135.64 42.2498 135.645 42.2606 135.635 42.2468C135.624 42.2307 135.591 42.1779 135.55 42.0684L129.928 44.1631ZM131.913 46.9519C132.95 47.7585 134.16 48.1009 135.37 48.1009V42.1009C135.327 42.1009 135.346 42.0952 135.405 42.1143C135.469 42.1347 135.538 42.1703 135.596 42.2157L131.913 46.9519ZM135.37 48.1009C136.592 48.1009 137.815 47.7522 138.857 46.9267L135.133 42.2224C135.194 42.1744 135.266 42.1368 135.332 42.1152C135.395 42.0951 135.415 42.1009 135.37 42.1009V48.1009ZM138.877 46.9108C139.817 46.1542 140.44 45.1729 140.822 44.1203L135.182 42.0743C135.143 42.1808 135.111 42.2323 135.1 42.2485C135.091 42.2622 135.095 42.2535 135.113 42.2383L138.877 46.9108ZM140.816 44.1357C141.197 43.105 141.353 42.0126 141.353 40.9091H135.353C135.353 41.4552 135.275 41.8216 135.187 42.0589L140.816 44.1357ZM141.353 40.9091C141.353 39.8186 141.202 38.7367 140.828 37.7166L135.194 39.7805C135.276 40.0039 135.353 40.3623 135.353 40.9091H141.353ZM140.828 37.7166C140.443 36.6655 139.814 35.6872 138.867 34.9376L135.143 39.6419C135.12 39.6243 135.113 39.6121 135.119 39.6212C135.127 39.6327 135.157 39.6792 135.194 39.7805L140.828 37.7166ZM138.867 34.9376C137.819 34.1081 136.591 33.7635 135.37 33.7635V39.7635C135.421 39.7635 135.404 39.7701 135.344 39.7506C135.279 39.7297 135.206 39.6922 135.143 39.6419L138.867 34.9376ZM135.37 33.7635C134.174 33.7635 132.966 34.0916 131.924 34.8873L135.567 39.6553C135.505 39.7025 135.436 39.7359 135.379 39.7539C135.326 39.7705 135.316 39.7635 135.37 39.7635V33.7635ZM131.908 34.8997C130.951 35.6413 130.321 36.6192 129.931 37.6552L135.547 39.7681C135.587 39.6608 135.618 39.6131 135.625 39.6036C135.63 39.5966 135.617 39.6163 135.583 39.643L131.908 34.8997ZM129.931 37.6552C129.541 38.6919 129.388 39.798 129.388 40.9091H135.388C135.388 40.3336 135.469 39.9747 135.547 39.7681L129.931 37.6552Z" fill="white" mask="url(#path-3-outside-1_41_431)"/>
</svg>
